<svg width="53" height="53" viewBox="0 0 53 53" fill="none" xmlns="http://www.w3.org/2000/svg">
<path d="M0 12.2539C0 7.83058 0 5.61893 0.90165 3.94788C1.59815 2.65704 2.65704 1.59815 3.94788 0.90165C5.61893 0 7.83058 0 12.2539 0H40.746C45.1693 0 47.381 0 49.052 0.90165C50.3429 1.59815 51.4018 2.65704 52.0983 3.94788C52.9999 5.61893 52.9999 7.83058 52.9999 12.2539V40.746C52.9999 45.1693 52.9999 47.381 52.0983 49.052C51.4018 50.3429 50.3429 51.4018 49.052 52.0983C47.381 52.9999 45.1693 52.9999 40.746 52.9999H12.2539C7.83058 52.9999 5.61893 52.9999 3.94788 52.0983C2.65704 51.4018 1.59815 50.3429 0.90165 49.052C0 47.381 0 45.1693 0 40.746V12.2539Z" fill="#0DBB85"/>
<path d="M20.5486 22.3029V26.8133L26.1869 26.8133V32.5143V32.5769H30.6974C30.6975 32.5561 30.6975 32.5352 30.6975 32.5143C30.6975 26.8955 26.1595 22.3366 20.5486 22.3029Z" fill="white"/>
<path d="M28.4422 10.3997C27.1967 10.3997 26.1869 11.4094 26.1869 12.655V22.3027H20.5486V22.3029C26.1595 22.3366 30.6975 26.8955 30.6975 32.5143V26.8133H40.4706C41.7162 26.8133 42.7259 25.8036 42.7259 24.558C42.7259 23.3125 41.7162 22.3027 40.4706 22.3027H30.6975V12.655C30.6975 11.4094 29.6878 10.3997 28.4422 10.3997Z" fill="white"/>
<path fill-rule="evenodd" clip-rule="evenodd" d="M20.486 26.8133H20.5486V22.3029C20.5278 22.3028 20.5069 22.3027 20.486 22.3027C14.8463 22.3027 10.2744 26.8746 10.2744 32.5143C10.2744 38.154 14.8463 42.7258 20.486 42.7258C26.1048 42.7258 30.6637 38.1878 30.6974 32.5769H26.1869V32.5143C26.1869 32.5352 26.1868 32.5561 26.1866 32.5769C26.153 35.6966 23.6136 38.2152 20.486 38.2152C17.3374 38.2152 14.785 35.6628 14.785 32.5143C14.785 29.3866 17.3037 26.8473 20.4233 26.8137C20.4442 26.8135 20.4651 26.8133 20.486 26.8133Z" fill="white"/>
<path d="M35.2075 22.3027L35.2075 26.8134L21.5503 26.8134L21.5503 22.3027L35.2075 22.3027Z" fill="url(#paint0_linear_101_345)"/>
<path d="M26.187 17.1658H30.6976V30.823H26.187V17.1658Z" fill="white"/>
<defs>
<linearGradient id="paint0_linear_101_345" x1="21.5503" y1="24.558" x2="35.2075" y2="24.558" gradientUnits="userSpaceOnUse">
<stop stop-color="#EDEDED" stop-opacity="0"/>
<stop offset="0.50009" stop-color="#0B0B0B" stop-opacity="0.24"/>
<stop offset="1" stop-color="#EDEDED" stop-opacity="0"/>
</linearGradient>
</defs>
</svg>
