<svg width="97" height="23" viewBox="0 0 97 23" fill="none" xmlns="http://www.w3.org/2000/svg">
<path d="M0 5.11417C0 3.2681 0 2.34507 0.376305 1.64765C0.666989 1.10892 1.10892 0.666989 1.64765 0.376305C2.34507 0 3.2681 0 5.11417 0H17.0054C18.8515 0 19.7745 0 20.4719 0.376305C21.0107 0.666989 21.4526 1.10892 21.7433 1.64765C22.1196 2.34507 22.1196 3.2681 22.1196 5.11417V17.0054C22.1196 18.8515 22.1196 19.7745 21.7433 20.4719C21.4526 21.0107 21.0107 21.4526 20.4719 21.7433C19.7745 22.1196 18.8515 22.1196 17.0054 22.1196H5.11417C3.2681 22.1196 2.34507 22.1196 1.64765 21.7433C1.10892 21.4526 0.666989 21.0107 0.376305 20.4719C0 19.7745 0 18.8515 0 17.0054V5.11417Z" fill="#0DBB85"/>
<path d="M8.57604 9.30816V11.1906L10.9292 11.1906V13.5699V13.596H12.8116C12.8117 13.5873 12.8117 13.5786 12.8117 13.5699C12.8117 11.2249 10.9177 9.32223 8.57604 9.30816Z" fill="white"/>
<path d="M11.8704 4.34033C11.3506 4.34033 10.9292 4.76175 10.9292 5.28159V9.30808H8.57604V9.30816C10.9177 9.32223 12.8117 11.2249 12.8117 13.5699V11.1906H16.8905C17.4103 11.1906 17.8317 10.7692 17.8317 10.2493C17.8317 9.7295 17.4103 9.30808 16.8905 9.30808H12.8117V5.28159C12.8117 4.76175 12.3903 4.34033 11.8704 4.34033Z" fill="white"/>
<path fill-rule="evenodd" clip-rule="evenodd" d="M8.54989 11.1906H8.57604V9.30816C8.56733 9.30811 8.55862 9.30808 8.54989 9.30808C6.19616 9.30808 4.28809 11.2162 4.28809 13.5699C4.28809 15.9236 6.19616 17.8317 8.54989 17.8317C10.8949 17.8317 12.7976 15.9377 12.8116 13.596H10.9292V13.5699C10.9292 13.5786 10.9291 13.5873 10.929 13.596C10.915 14.898 9.85522 15.9492 8.54989 15.9492C7.23585 15.9492 6.1706 14.8839 6.1706 13.5699C6.1706 12.2646 7.22175 11.2048 8.52375 11.1907C8.53245 11.1906 8.54117 11.1906 8.54989 11.1906Z" fill="white"/>
<path d="M14.6938 9.30811L14.6938 11.1906L8.99401 11.1906L8.99401 9.30811L14.6938 9.30811Z" fill="url(#paint0_linear_101_1590)"/>
<path d="M10.9292 7.16406H12.8117V12.8639H10.9292V7.16406Z" fill="white"/>
<path d="M91.9633 15.678C92.4865 15.678 92.9474 15.6033 93.346 15.4538C93.7571 15.2919 94.137 15.0428 94.4858 14.7064L96.0366 16.3881C95.0899 17.4718 93.7073 18.0136 91.8886 18.0136C90.7551 18.0136 89.7523 17.7957 88.8803 17.3597C88.0084 16.9112 87.3357 16.2946 86.8624 15.5099C86.389 14.7251 86.1523 13.8345 86.1523 12.8379C86.1523 11.8539 86.3828 10.9695 86.8437 10.1847C87.317 9.38747 87.9585 8.77087 88.7682 8.33489C89.5904 7.88645 90.5121 7.66223 91.5336 7.66223C92.4927 7.66223 93.3647 7.86776 94.1495 8.27883C94.9342 8.67744 95.5571 9.2629 96.018 10.0352C96.4913 10.7951 96.728 11.6982 96.728 12.7445L89.2914 14.1833C89.5032 14.6815 89.8333 15.0552 90.2817 15.3043C90.7426 15.5535 91.3031 15.678 91.9633 15.678ZM91.5336 9.86705C90.7986 9.86705 90.2007 10.1037 89.7398 10.5771C89.2789 11.0504 89.036 11.7044 89.0111 12.539L93.9066 11.5861C93.7695 11.0629 93.4893 10.6456 93.0657 10.3342C92.6422 10.0228 92.1315 9.86705 91.5336 9.86705Z" fill="#0DBB85"/>
<path d="M81.3437 15.678C81.8669 15.678 82.3278 15.6033 82.7264 15.4538C83.1375 15.2919 83.5174 15.0428 83.8662 14.7064L85.417 16.3881C84.4703 17.4718 83.0876 18.0136 81.269 18.0136C80.1354 18.0136 79.1327 17.7957 78.2607 17.3597C77.3887 16.9112 76.7161 16.2946 76.2427 15.5099C75.7694 14.7251 75.5327 13.8345 75.5327 12.8379C75.5327 11.8539 75.7632 10.9695 76.2241 10.1847C76.6974 9.38747 77.3389 8.77087 78.1486 8.33489C78.9707 7.88645 79.8925 7.66223 80.914 7.66223C81.8731 7.66223 82.7451 7.86776 83.5298 8.27883C84.3146 8.67744 84.9374 9.2629 85.3983 10.0352C85.8717 10.7951 86.1084 11.6982 86.1084 12.7445L78.6718 14.1833C78.8835 14.6815 79.2136 15.0552 79.6621 15.3043C80.123 15.5535 80.6835 15.678 81.3437 15.678ZM80.914 9.86705C80.179 9.86705 79.5811 10.1037 79.1202 10.5771C78.6593 11.0504 78.4164 11.7044 78.3915 12.539L83.2869 11.5861C83.1499 11.0629 82.8696 10.6456 82.4461 10.3342C82.0226 10.0228 81.5119 9.86705 80.914 9.86705Z" fill="#0DBB85"/>
<path d="M74.828 7.81177V13.3612C74.828 14.8435 74.4231 15.9895 73.6135 16.7992C72.8038 17.6089 71.6515 18.0137 70.1568 18.0137C69.4343 18.0137 68.7928 17.9016 68.2322 17.6774C67.6841 17.4532 67.2232 17.0919 66.8495 16.5937C66.4758 17.0919 66.0149 17.4532 65.4669 17.6774C64.9188 17.9016 64.271 18.0137 63.5236 18.0137C62.0164 18.0137 60.8641 17.6089 60.0669 16.7992C59.2697 15.9895 58.8711 14.8435 58.8711 13.3612V7.81177H61.7859V13.137C61.7859 13.9715 61.9292 14.5881 62.2157 14.9868C62.5022 15.3729 62.9506 15.566 63.561 15.566C64.1838 15.566 64.6447 15.3667 64.9437 14.9681C65.2426 14.5695 65.3921 13.9591 65.3921 13.137V7.81177H68.307V13.137C68.307 13.9591 68.4564 14.5695 68.7554 14.9681C69.0544 15.3667 69.5152 15.566 70.1381 15.566C70.7484 15.566 71.1969 15.3729 71.4834 14.9868C71.7699 14.5881 71.9131 13.9715 71.9131 13.137V7.81177H74.828Z" fill="#0DBB85"/>
<path d="M57.3961 7.81171V17.8642H54.6121V16.7057C53.8896 17.5777 52.8432 18.0136 51.473 18.0136C50.5263 18.0136 49.6668 17.8019 48.8945 17.3784C48.1346 16.9548 47.5367 16.3507 47.1007 15.5659C46.6648 14.7812 46.4468 13.8718 46.4468 12.8379C46.4468 11.804 46.6648 10.8947 47.1007 10.1099C47.5367 9.32518 48.1346 8.72104 48.8945 8.29752C49.6668 7.87399 50.5263 7.66223 51.473 7.66223C52.756 7.66223 53.7588 8.06707 54.4813 8.87675V7.81171H57.3961ZM51.9775 15.622C52.7124 15.622 53.3228 15.3729 53.8086 14.8746C54.2944 14.3639 54.5373 13.685 54.5373 12.8379C54.5373 11.9909 54.2944 11.3182 53.8086 10.82C53.3228 10.3093 52.7124 10.0539 51.9775 10.0539C51.2301 10.0539 50.6135 10.3093 50.1277 10.82C49.6419 11.3182 49.399 11.9909 49.399 12.8379C49.399 13.685 49.6419 14.3639 50.1277 14.8746C50.6135 15.3729 51.2301 15.622 51.9775 15.622Z" fill="#0DBB85"/>
<path d="M43.263 9.13834C43.6118 8.65253 44.079 8.28506 44.6644 8.03593C45.2623 7.7868 45.9474 7.66223 46.7197 7.66223V10.3529C46.3959 10.3279 46.1779 10.3155 46.0658 10.3155C45.2312 10.3155 44.5772 10.5522 44.1039 11.0255C43.6305 11.4864 43.3938 12.184 43.3938 13.1182V17.8642H40.479V7.81171H43.263V9.13834Z" fill="#0DBB85"/>
<path d="M38.9493 4V17.8642H36.1653V16.7057C35.4428 17.5777 34.3965 18.0137 33.0262 18.0137C32.0795 18.0137 31.22 17.8019 30.4477 17.3784C29.6879 16.9548 29.09 16.3507 28.654 15.5659C28.218 14.7812 28 13.8718 28 12.8379C28 11.804 28.218 10.8947 28.654 10.11C29.09 9.32519 29.6879 8.72104 30.4477 8.29752C31.22 7.874 32.0795 7.66224 33.0262 7.66224C34.3093 7.66224 35.312 8.06707 36.0345 8.87675V4H38.9493ZM33.5307 15.622C34.2657 15.622 34.876 15.3729 35.3618 14.8746C35.8476 14.3639 36.0905 13.685 36.0905 12.8379C36.0905 11.9909 35.8476 11.3182 35.3618 10.82C34.876 10.3093 34.2657 10.0539 33.5307 10.0539C32.7833 10.0539 32.1667 10.3093 31.6809 10.82C31.1951 11.3182 30.9522 11.9909 30.9522 12.8379C30.9522 13.685 31.1951 14.3639 31.6809 14.8746C32.1667 15.3729 32.7833 15.622 33.5307 15.622Z" fill="#0DBB85"/>
<defs>
<linearGradient id="paint0_linear_101_1590" x1="8.99401" y1="10.2494" x2="14.6938" y2="10.2494" gradientUnits="userSpaceOnUse">
<stop stop-color="#EDEDED" stop-opacity="0"/>
<stop offset="0.50009" stop-color="#0B0B0B" stop-opacity="0.24"/>
<stop offset="1" stop-color="#EDEDED" stop-opacity="0"/>
</linearGradient>
</defs>
</svg>
