<svg width="14" height="17" viewBox="0 0 14 17" fill="none" xmlns="http://www.w3.org/2000/svg">
<path fill-rule="evenodd" clip-rule="evenodd" d="M2.5 4.99995C2.50014 4.20501 2.71086 3.42428 3.11072 2.73722C3.51058 2.05016 4.08531 1.48129 4.77642 1.08848C5.46754 0.695676 6.25038 0.49296 7.04529 0.50096C7.8402 0.508961 8.6188 0.727392 9.30187 1.13403C9.98494 1.54067 10.5481 2.12099 10.9341 2.81596C11.32 3.51093 11.515 4.29574 11.4991 5.09053C11.4832 5.88532 11.2571 6.66172 10.8437 7.34074C10.4304 8.01975 9.8445 8.57715 9.14575 8.9562C9.11436 8.9729 9.08737 8.99681 9.067 9.02595L9.05875 9.04395L9.145 10.25H11.5C12.0967 10.25 12.669 10.487 13.091 10.909C13.5129 11.3309 13.75 11.9032 13.75 12.5V14C13.75 14.3978 13.592 14.7793 13.3107 15.0606C13.0294 15.3419 12.6478 15.5 12.25 15.5H1.75C1.35218 15.5 0.970644 15.3419 0.68934 15.0606C0.408035 14.7793 0.25 14.3978 0.25 14V12.5C0.25 11.9032 0.487053 11.3309 0.90901 10.909C1.33097 10.487 1.90326 10.25 2.5 10.25H4.855L4.94125 9.04395L4.93375 9.02595C4.91317 8.99672 4.88592 8.97281 4.85425 8.9562C4.14199 8.56982 3.54727 7.99828 3.1329 7.30193C2.71852 6.60558 2.49986 5.81027 2.5 4.99995ZM7 1.99995C6.33235 1.99955 5.68364 2.22188 5.15659 2.63173C4.62954 3.04158 4.25427 3.61553 4.0902 4.2627C3.92612 4.90988 3.98262 5.5933 4.25074 6.20474C4.51887 6.81619 4.9833 7.32072 5.5705 7.63845C6.0655 7.90695 6.487 8.4597 6.4375 9.1497L6.35125 10.3572C6.32413 10.7355 6.15471 11.0895 5.8771 11.3479C5.59948 11.6063 5.23427 11.75 4.855 11.75H2.5C2.30109 11.75 2.11032 11.829 1.96967 11.9696C1.82902 12.1103 1.75 12.301 1.75 12.5V14H12.25V12.5C12.25 12.301 12.171 12.1103 12.0303 11.9696C11.8897 11.829 11.6989 11.75 11.5 11.75H9.145C8.76573 11.75 8.40052 11.6063 8.1229 11.3479C7.84529 11.0895 7.67587 10.7355 7.64875 10.3572L7.5625 9.1497C7.513 8.4597 7.93525 7.90695 8.4295 7.63845C9.0167 7.32072 9.48113 6.81619 9.74926 6.20474C10.0174 5.5933 10.0739 4.90988 9.9098 4.2627C9.74573 3.61553 9.37046 3.04158 8.84341 2.63173C8.31636 2.22188 7.66765 1.99955 7 1.99995Z" fill="#0B0B0B"/>
</svg>
